<svg width="8" height="8" viewBox="0 0 8 8" fill="none" xmlns="http://www.w3.org/2000/svg">
<g clip-path="url(#clip0_720_487)">
<path d="M3.66096 0.604929C3.76469 0.547323 3.88138 0.517095 4.00003 0.517095C4.11869 0.517095 4.23538 0.547323 4.33911 0.604929L6.9634 2.06252C7.01781 2.09277 7.06314 2.13702 7.0947 2.19068C7.12625 2.24435 7.14289 2.30547 7.14289 2.36772V5.24344C7.14286 5.36798 7.10953 5.49025 7.04635 5.59758C6.98317 5.7049 6.89244 5.79338 6.78356 5.85385L4.33911 7.21226C4.23538 7.26987 4.11869 7.3001 4.00003 7.3001C3.88138 7.3001 3.76469 7.26987 3.66096 7.21226L1.21651 5.85385C1.10768 5.79341 1.01699 5.70499 0.953808 5.59773C0.890631 5.49047 0.857269 5.36827 0.857178 5.24379V2.36772C0.857175 2.30547 0.873815 2.24435 0.905373 2.19068C0.936932 2.13702 0.982262 2.09277 1.03667 2.06252L3.6613 0.604929H3.66096Z" stroke="black" stroke-width="0.5" stroke-linecap="round" stroke-linejoin="round"/>
<path d="M2.42859 1.28937L5.57145 3.03541V4.25763M1.90479 4.02296L2.9524 4.60683" stroke="black" stroke-width="0.5" stroke-linecap="round" stroke-linejoin="round"/>
<path d="M0.857178 2.16239L4.00003 3.90842M4.00003 3.90842L7.14289 2.16239M4.00003 3.90842V7.40049" stroke="black" stroke-width="0.5" stroke-linejoin="round"/>
</g>
<defs>
<clipPath id="clip0_720_487">
<rect width="8" height="8" fill="white"/>
</clipPath>
</defs>
</svg>
