<?xml version="1.0" encoding="utf-8"?>
<!-- Generator: Adobe Illustrator 22.0.1, SVG Export Plug-In . SVG Version: 6.00 Build 0)  -->
<svg version="1.1" id="Capa_1" xmlns="http://www.w3.org/2000/svg" xmlns:xlink="http://www.w3.org/1999/xlink" x="0px" y="0px"
	 viewBox="0 0 161 152.3" style="enable-background:new 0 0 161 152.3;" xml:space="preserve">
<style type="text/css">
	.st0{display:none;}
	.st1{fill:#422D67;}
	.st2{fill:#ECE43F;}
</style>
<rect class="st0" width="161" height="152.3"/>
<g>
	<g>
		<path class="st1" d="M114.9,32.6c0,0,10.8,9.9,7.7,17.3c-3.2,7.4-14.9-7.7-14.9-7.7s-11.1,13-20.6,9C81.9,48.8,98.6,31,98.6,31
			S86.2,14,90.2,8.1C94.1,2.2,107,21.3,107,21.3s7.3-16.7,13.6-13.1C126.8,11.8,114.9,32.6,114.9,32.6"/>
		<path class="st1" d="M48.9,37.1c0,0-8.6,11.9-4,18.5C49.6,62.2,58,45,58,45s13.5,10.4,22,4.6c4.6-3.4-15.5-17.4-15.5-17.4
			s8.7-19.1,3.6-24.1C63,3.2,54.3,24.4,54.3,24.4s-10.6-14.8-16-10S48.9,37.1,48.9,37.1"/>
		<path class="st2" d="M25.8,88c0,0,26.3-15.9,46-18.4c15.8-2,13.8,6.2,13.8,6.2s1.5,32.4-1.5,37.8c0,0,2-3.6-7.1-2.7
			c-31.1,2.9-39,20.3-50.9,24.6C26.1,131.1,26.1,103.8,25.8,88"/>
		<path class="st2" d="M66.9,124.2l2.3-9c0,0,5.8-2.4,9.2-1c2.2,0.9,2.1,3.1,0,3.7C76.3,118.5,68.1,122.1,66.9,124.2"/>
		<path class="st2" d="M91,92.5c0,0,0.5,5.8-1.1,17.1s-1.6,10.7-5.9,12.3c-4.3,1.6-13,3.2-14.4,8.7c-1.4,5.5,5.5,5.6,11,3.8
			c5.9-1.8,38.3-29.5,72-12c0,0,0.3-2-8.2-14.3c0,0-1.6-1.9,5.2-4.9C149.7,103.2,131.7,90.6,91,92.5"/>
		<path class="st2" d="M11.8,89c0,0,4.5,2.4,12.4,2.6V94c0,0-1.2,0.2-3,0.2c-2.9,0-7.1-0.4-9.5-2.4L11.8,89 M8.7,83.8V89v2.7v1.4
			L9.8,94c2.4,2.1,6.3,3.1,11.5,3.1c1.9,0,3.2-0.2,3.3-0.2l2.8-0.3v-2.8v-2.4v-3l-3-0.1c-7-0.2-11-2.2-11.1-2.2L8.7,83.8z"/>
		<path class="st2" d="M15.1,96.6c1.5,0,6.4,0.5,6.4,0.5s-7.8,4.5-8.9,5.6c0,0-1.3-2.9-0.8-3.4C12.6,98.7,13.5,98.3,15.1,96.6
			 M15.1,93.5h-1.3l-0.9,1c-0.9,0.9-1.5,1.3-2.1,1.7c-0.3,0.3-0.7,0.5-1,0.8c-2,1.7-1.1,4.5,0.1,7l1.8,4.1l3.1-3.1
			c0.8-0.7,4.9-3.2,8.3-5.2l8.3-4.8l-9.5-1C21.3,93.9,16.7,93.5,15.1,93.5"/>
		<path class="st2" d="M11.8,126c0,0,4.5,2.4,12.4,2.6v2.4c0,0-1.2,0.2-3,0.2c-2.9,0-7.1-0.4-9.5-2.4L11.8,126 M8.7,120.8v5.1v2.8
			v1.4l1.1,0.9c2.4,2.1,6.3,3.1,11.5,3.1c1.9,0,3.2-0.2,3.3-0.2l2.8-0.3v-2.8v-2.4v-3l-3-0.1c-7-0.2-11-2.2-11.1-2.2L8.7,120.8z"/>
		<path class="st2" d="M15.1,133.6c1.5,0,6.4,0.5,6.4,0.5s-7.8,4.5-8.9,5.6c0,0-1.3-2.9-0.8-3.4C12.6,135.7,13.5,135.2,15.1,133.6
			 M15.1,130.4h-1.3l-0.9,1c-0.9,0.9-1.5,1.3-2.1,1.7c-0.3,0.3-0.7,0.5-1,0.8c-2,1.7-1.1,4.5,0.1,7l1.8,4.1l3.1-3.1
			c0.8-0.7,4.9-3.2,8.3-5.2l8.3-4.8l-9.5-0.9C21.3,130.9,16.7,130.4,15.1,130.4"/>
	</g>
	<g>
		<path class="st1" d="M99.2,102.3c0,3-0.1,4.6-0.1,7.6c0.7-0.2,1.1-0.3,1.8-0.4c0-0.3,0-0.5,0-0.8c0.9-0.2,1.4-0.3,2.3-0.4
			c0,1.5,0,2.3,0,3.7c-3.1,0.7-4.6,1.1-7.6,2c0-1.3,0-2,0-3.3c0.3-0.1,0.4-0.1,0.6-0.2c0-3.2,0.1-4.7,0.1-7.9
			c-0.3,0.1-0.4,0.1-0.6,0.1c0-1.3,0-2,0-3.3c1.6-0.2,2.4-0.3,4.1-0.4c0,1.2,0,1.8,0,3.1C99.6,102.2,99.5,102.2,99.2,102.3"/>
		<path class="st1" d="M107.4,101.5c0,2.7,0,4.1,0,6.9c0.8-0.1,1.1-0.2,1.9-0.3v-0.7c0.9-0.1,1.4-0.2,2.4-0.3c0,1.3,0,2,0,3.4
			c-3.1,0.5-4.7,0.7-7.8,1.4c0-1.2,0-1.8,0-3c0.3-0.1,0.4-0.1,0.6-0.1c0-2.8,0-4.3,0.1-7.1c-0.3,0-0.4,0.1-0.6,0.1
			c0-1.2,0-1.8,0-2.9c1.6-0.1,2.4-0.1,4.1-0.1c0,1.1,0,1.7,0,2.8C107.7,101.5,107.6,101.5,107.4,101.5"/>
		<path class="st1" d="M112.1,100.6c0.7-0.8,1-1.1,1.6-1.8c1.8,0.1,2.7,0.2,4.5,0.3c0.7,0.7,1,1.1,1.7,1.8c0.1,2.8,0.2,4.2,0.3,7
			c-0.7,0.7-1,1-1.6,1.8c-1.9,0.2-2.8,0.3-4.7,0.5c-0.7-0.7-1-1-1.7-1.6C112.1,105.3,112.1,103.7,112.1,100.6 M117.1,101.7
			c-0.2-0.2-0.2-0.2-0.3-0.4c-0.6,0-0.9-0.1-1.5-0.1c-0.2,0.2-0.2,0.2-0.3,0.4c0.1,2.2,0.1,3.3,0.1,5.4c0.2,0.2,0.2,0.2,0.4,0.3
			c0.6-0.1,0.9-0.1,1.5-0.1c0.1-0.2,0.2-0.2,0.3-0.4C117.2,104.9,117.1,103.8,117.1,101.7"/>
		<path class="st1" d="M124.4,107.2c0.3,0,0.4,0,0.6,0c0.1,0.9,0.1,1.3,0.2,2.2c-1.7,0.1-2.5,0.1-4.2,0.2c-0.1-0.9-0.1-1.4-0.1-2.3
			c0.3,0,0.4,0,0.6,0c-0.1-2.2-0.2-3.3-0.2-5.5c-0.3,0-0.4-0.1-0.6-0.1c-0.1-0.9-0.1-1.4-0.1-2.3c2.5,0.3,3.8,0.5,6.3,0.9
			c0.7,0.7,1,1,1.7,1.7c0.1,0.9,0.1,1.4,0.2,2.3c-0.3,0.2-0.4,0.3-0.6,0.5c0.3,0.3,0.5,0.4,0.7,0.7c0.1,0.8,0.1,1.2,0.2,2.1
			c0.3,0,0.4,0,0.6,0.1c0.1,0.8,0.1,1.2,0.2,2c-1.4-0.1-2.2-0.1-3.6,0c-0.1-1.4-0.2-2.1-0.3-3.5c-0.2-0.1-0.2-0.2-0.4-0.3
			c-0.6-0.1-0.9-0.1-1.4-0.1C124.4,106.1,124.4,106.5,124.4,107.2 M124.2,103.3c0.6,0.1,0.9,0.1,1.4,0.1c0.1-0.1,0.2-0.2,0.3-0.3
			c0-0.3-0.1-0.5-0.1-0.8c-0.2-0.2-0.2-0.2-0.4-0.4c-0.6-0.1-0.8-0.1-1.4-0.2C124.2,102.4,124.2,102.7,124.2,103.3"/>
		<path class="st1" d="M134,107.6c0.3,0,0.4,0.1,0.6,0.1l0.3,1.8c-1.7-0.1-2.5-0.2-4.2-0.2c-0.1-0.8-0.1-1.2-0.2-2
			c0.3,0,0.4,0,0.6,0.1l-0.5-4.7c-0.3-0.1-0.4-0.1-0.6-0.1c-0.1-0.8-0.1-1.2-0.2-2c1.6,0.3,2.4,0.5,4,0.9c0.1,0.7,0.2,1.1,0.3,1.8
			c-0.3-0.1-0.4-0.1-0.6-0.1c0.1,0.5,0.1,0.7,0.2,1.1c0.5-0.4,0.8-0.5,1.3-0.9c-0.1,0-0.2-0.1-0.3-0.1c-0.1-0.7-0.2-1.1-0.3-1.8
			c1.9,0.5,2.8,0.7,4.7,1.3c0.2,0.7,0.2,1,0.4,1.6c-0.3-0.1-0.5-0.1-0.8-0.2c-0.9,0.5-1.4,0.8-2.4,1.5c1.3,1,2,1.5,3.3,2.5
			c0.3,0.1,0.5,0.1,0.8,0.1c0.2,0.7,0.2,1,0.4,1.6c-2.1-0.3-3.1-0.4-5.1-0.5c-0.1-0.7-0.2-1.1-0.3-1.8c0.1,0,0.2,0,0.3,0.1
			c-0.5-0.4-0.7-0.5-1.1-0.9c-0.2,0.2-0.3,0.2-0.4,0.4C134,107.4,134,107.5,134,107.6"/>
		<path class="st1" d="M40.5,110.5c-0.9-3-1.3-4.6-2.1-7.7c-0.1,2.7-0.1,4.1-0.2,6.7c0.3-0.2,0.4-0.3,0.7-0.4
			c-0.1,2.3-0.1,3.4-0.2,5.6c-1.7,1.1-2.6,1.7-4.3,3c0.1-2.2,0.2-3.4,0.3-5.7c0.3-0.2,0.4-0.3,0.6-0.5c0.2-5.7,0.3-8.8,0.5-14.5
			c-0.3,0.2-0.4,0.2-0.6,0.4c0.1-2.4,0.2-3.5,0.3-5.7c1.3-0.8,1.9-1.1,3.2-1.8c0.8,3.2,1.2,5,2.2,8.4c1.1-4.5,1.6-6.7,2.6-10.9
			c1.3-0.7,2-1,3.3-1.6c0,2.2,0,3.2-0.1,5.4c-0.3,0.1-0.4,0.2-0.7,0.3c-0.1,5.4-0.1,8.2-0.1,13.5c0.3-0.2,0.4-0.2,0.7-0.4
			c0,2.2,0,3.3-0.1,5.4c-1.8,0.9-2.7,1.4-4.4,2.5c0.1-2.2,0.1-3.3,0.1-5.5c0.3-0.2,0.4-0.3,0.7-0.4c0.1-2.6,0.1-3.9,0.1-6.5
			C42.1,104.2,41.6,106.3,40.5,110.5"/>
		<path class="st1" d="M51.3,102.3c0.8-0.4,1.2-0.5,2-0.8c0-0.4,0-0.6,0-1c1-0.4,1.5-0.6,2.6-1c0.1,2.6,0.1,3.8,0.1,6.3
			c-3.3,1.2-5,2-8.3,3.6c0-2.2,0-3.2,0-5.4c0.3-0.2,0.4-0.2,0.7-0.3c0-5.3,0-8.1,0-13.4l-0.6,0.3c0-2.2,0-3.3,0-5.4
			c3-1.4,4.7-2.1,8-3.3c0.1,2.5,0.1,3.7,0.1,6.3c-1,0.4-1.5,0.6-2.6,1c0-0.4,0-0.6,0-1c-0.8,0.3-1.2,0.5-2,0.8c0,1.6,0,2.4,0.1,4
			c0.2-0.1,0.3-0.1,0.5-0.2c0-0.4,0-0.6,0-1c1-0.4,1.5-0.6,2.5-1c0,3,0.1,4.5,0.1,7.4c-1,0.4-1.5,0.6-2.5,1c0-0.4,0-0.6,0-1
			c-0.2,0.1-0.3,0.1-0.5,0.2C51.3,100,51.3,100.8,51.3,102.3"/>
		<path class="st1" d="M56.6,81.6c2.8-0.9,3.9-1.2,6.8-2c0.9,1.3,1.2,2,2.1,3.3c0.2,6.4,0.1,10,0.3,16.4c-0.7,1.7-1,2.5-1.7,4.2
			c-2.8,0.7-4.3,1.1-7.1,2.1c-0.1-2.1-0.1-3.1-0.1-5.3c0.3-0.1,0.4-0.2,0.7-0.3c-0.1-5.3-0.1-8-0.1-13.3c-0.3,0.1-0.4,0.2-0.7,0.2
			C56.6,84.8,56.6,83.7,56.6,81.6 M60.6,99c0.6-0.2,0.9-0.3,1.5-0.4c0.2-0.4,0.2-0.5,0.4-0.9c-0.1-4.6-0.1-7-0.2-11.7
			c-0.2-0.3-0.2-0.4-0.4-0.7c-0.6,0.2-0.9,0.3-1.5,0.4C60.5,91,60.5,93.7,60.6,99"/>
		<path class="st1" d="M75,77.6c0.1,2.1,0.1,3.2,0.2,5.4c-0.2,0-0.4,0-0.6,0c1.1,5.3,1.7,8.2,2.8,13.5c0.3,0,0.4,0,0.7,0.1
			c0.1,2.2,0.1,3.2,0.1,5.2c-1.7,0-2.6,0-4.3,0.2c-0.1-2.1-0.1-3.2-0.1-5.4c0.2,0,0.3,0,0.4,0c-0.1-0.5-0.1-0.7-0.2-1.1
			c-1.2,0.1-1.8,0.2-3,0.3c-0.1,0.5-0.1,0.7-0.2,1.2c0.2,0,0.2-0.1,0.4-0.1c0.1,2.2,0.1,3.3,0.1,5.3c-1.7,0.2-2.6,0.4-4.4,0.7
			c-0.1-2.1-0.1-3.1-0.2-5.3c0.3-0.1,0.4-0.1,0.7-0.2c0.9-5.5,1.4-8.4,2.4-13.9c-0.2,0.1-0.3,0.1-0.5,0.1c-0.1-2.2-0.1-3.3-0.2-5.3
			C71.4,77.7,72.5,77.5,75,77.6 M71.5,90.9c0.6-0.1,0.9-0.1,1.5-0.2c-0.3-1.5-0.5-2.3-0.8-3.8C71.9,88.6,71.8,89.3,71.5,90.9"/>
		<g>
			<path class="st2" d="M91.6,10.7c0,0-4.7,3.7,9.5,20.4c14.1,16.7,16.1,17.4,18,17.6c1.8,0.1-1.9-4.2-1.9-4.2s-19-25.7-20.9-28.6
				C94.4,13.2,93.1,10.4,91.6,10.7"/>
			<path class="st2" d="M100,33.9c0,0-9.6,12.2-10.7,13c-1.1,0.9-1.7,2.3-0.2,2.2s7.7-3.8,13.6-11.8L100,33.9z"/>
			<path class="st2" d="M107.7,22.2l1.8,4.2c0,0,7.8-8.3,9.1-17.3C118.9,5.9,107.7,22.2,107.7,22.2"/>
			<path class="st2" d="M67.2,10.9c0,0,5.3,2.7-5,21.9S50,53.2,48.2,53.7s1-4.5,1-4.5s13.3-29,14.5-32.2
				C64.9,13.9,65.6,11,67.2,10.9"/>
			<path class="st2" d="M63.8,35.3c0,0,11.9,9.9,13.1,10.6c1.2,0.7,2.2,1.8,0.7,2.1s-8.3-2.2-15.7-8.7L63.8,35.3z"/>
			<path class="st2" d="M53.7,25.5l-0.9,4.4c0,0-9.3-6.6-12.5-15.1C39.4,11.8,53.7,25.5,53.7,25.5"/>
		</g>
	</g>
</g>
</svg>
