<svg width="28" height="28" viewBox="0 0 28 28" fill="none" xmlns="http://www.w3.org/2000/svg">
<path d="M16.9566 7H4.17399C3.1669 7 2.3479 7.82225 2.3479 8.83333V13.4167H4.17399V10.6667L10.0175 15.0667C10.1756 15.1855 10.3678 15.2498 10.5653 15.2498C10.7628 15.2498 10.955 15.1855 11.1131 15.0667L16.9566 10.6667V18.9167H9.65225V20.75H16.9566C17.9637 20.75 18.7827 19.9278 18.7827 18.9167V8.83333C18.7827 7.82225 17.9637 7 16.9566 7ZM10.5653 13.1875L4.78207 8.83333H16.3485L10.5653 13.1875Z" fill="white"/>
<path d="M0 14.5H6.3913V16.375H0V14.5ZM1.82609 17.3125H7.30435V19.1875H1.82609V17.3125ZM4.56522 20.125H8.21739V22H4.56522V20.125Z" fill="white"/>
</svg>
