<?xml version="1.0" encoding="utf-8"?>
<!-- Generator: Adobe Illustrator 22.0.1, SVG Export Plug-In . SVG Version: 6.00 Build 0)  -->
<svg version="1.1" id="Capa_1" xmlns="http://www.w3.org/2000/svg" xmlns:xlink="http://www.w3.org/1999/xlink" x="0px" y="0px"
	 viewBox="0 0 8 8" style="enable-background:new 0 0 8 8;" xml:space="preserve">
<style type="text/css">
	.st0{clip-path:url(#SVGID_2_);}
	.st1{fill:#CCFF00;}
</style>
<g>
	<defs>
		<rect id="SVGID_1_" width="8" height="8"/>
	</defs>
	<clipPath id="SVGID_2_">
		<use xlink:href="#SVGID_1_"  style="overflow:visible;"/>
	</clipPath>
	<g class="st0">
		<path class="st1" d="M4,0.8C3.4,0.8,2.9,1,2.4,1.2C1.9,1.5,1.5,1.9,1.3,2.4C1,2.9,0.8,3.4,0.8,4c0,0.6,0.1,1.1,0.4,1.6l-0.3,1
			c0,0.1,0,0.2,0,0.2C1,6.8,1,6.9,1.1,6.9C1.1,7,1.2,7,1.3,7.1c0.1,0,0.2,0,0.2,0l1-0.3C2.9,7,3.3,7.2,3.8,7.2s1-0.1,1.4-0.3
			c0.4-0.2,0.8-0.5,1.2-0.9C6.7,5.7,7,5.3,7.1,4.8c0.1-0.5,0.1-1,0-1.4C7,2.9,6.8,2.4,6.5,2.1C6.2,1.7,5.8,1.4,5.4,1.1
			C5,0.9,4.5,0.8,4,0.8L4,0.8z M4,6.8c-0.5,0-1-0.1-1.4-0.4c0,0-0.1,0-0.1,0c0,0,0,0,0,0l-1,0.3c0,0,0,0,0,0c0,0,0,0,0,0
			c0,0,0,0,0,0c0,0,0,0,0,0l0.3-1c0,0,0-0.1,0-0.1c0,0,0,0,0-0.1C1.3,4.9,1.1,4.3,1.2,3.7C1.3,3,1.6,2.5,2,2s1-0.7,1.6-0.8
			c0.6-0.1,1.2,0,1.8,0.3s1,0.8,1.2,1.4c0.2,0.6,0.3,1.2,0.1,1.8s-0.5,1.1-1,1.5C5.2,6.6,4.6,6.8,4,6.8L4,6.8z M5.6,4.5L5,4.2
			c-0.1,0-0.1-0.1-0.2-0.1c-0.1,0-0.2,0-0.2,0.1L4.1,4.4C3.9,4.3,3.7,4.1,3.6,3.9l0.2-0.4c0-0.1,0.1-0.1,0.1-0.2
			c0-0.1,0-0.2-0.1-0.2L3.5,2.4c0-0.1-0.1-0.1-0.1-0.1S3.2,2.2,3.1,2.2c-0.3,0-0.6,0.1-0.8,0.3C2.2,2.7,2.1,3,2.1,3.2
			c0,0.4,0.1,0.7,0.2,1c0.1,0.3,0.3,0.6,0.6,0.9c0.2,0.2,0.5,0.4,0.9,0.6c0.3,0.1,0.7,0.2,1,0.2h0c0.3,0,0.6-0.1,0.7-0.3
			c0.2-0.2,0.3-0.5,0.3-0.8c0-0.1,0-0.1-0.1-0.2C5.7,4.6,5.7,4.6,5.6,4.5z M4.8,5.6L4.8,5.6c-0.6,0-1.2-0.2-1.6-0.7
			c-0.4-0.4-0.7-1-0.7-1.6c0-0.2,0.1-0.4,0.2-0.5c0.1-0.1,0.3-0.2,0.5-0.2c0,0,0,0,0,0l0.4,0.6c0,0,0,0,0,0c0,0,0,0,0,0L3.2,3.8
			c0,0,0,0.1,0,0.1c0,0,0,0.1,0,0.1c0.2,0.4,0.5,0.7,0.8,0.8c0,0,0.1,0,0.1,0c0,0,0.1,0,0.1,0l0.5-0.3c0,0,0,0,0,0c0,0,0,0,0,0
			l0.6,0.4c0,0,0,0,0,0c0,0.2-0.1,0.4-0.2,0.5C5.1,5.5,4.9,5.6,4.8,5.6L4.8,5.6z"/>
	</g>
</g>
</svg>
